<?xml version="1.0" encoding="UTF-8" standalone="no"?>
<svg width="120px" height="120px" viewBox="0 0 120 120" version="1.1" xmlns="http://www.w3.org/2000/svg" xmlns:xlink="http://www.w3.org/1999/xlink" xmlns:sketch="http://www.bohemiancoding.com/sketch/ns">
    <!-- Generator: Sketch 3.3.2 (12043) - http://www.bohemiancoding.com/sketch -->
    <title>uitest-logo</title>
    <desc>Created with Sketch.</desc>
    <defs></defs>
    <g id="Page-1" stroke="none" stroke-width="1" fill="none" fill-rule="evenodd" sketch:type="MSPage">
        <g id="uitest-logo" sketch:type="MSLayerGroup">
            <path d="M-8.02913291e-13,60 C-8.02913291e-13,93.137085 26.862915,120 60,120 C93.137085,120 120,93.137085 120,60 C120,26.862915 93.137085,5.31857017e-13 60,5.32907052e-13 C26.862915,5.35007121e-13 -8.02913291e-13,26.862915 -8.02913291e-13,60 L-8.02913291e-13,60 Z" id="circle3731" fill="#1B2A38" sketch:type="MSShapeGroup"></path>
            <g id="uitest" transform="translate(21.333333, 32.000000)" fill="#FFFFFF" sketch:type="MSShapeGroup">
                <path d="M44.9448986,31.9920729 L56.2276249,31.9920729 L40,58.6666667 L75.519694,25.5845987 L64.2369677,25.5845987 L77.9573201,1.41727744 L44.9448986,31.9920729 Z" id="path100525-path-2"></path>
                <path d="M27.3333333,31.7395833 C27.3333333,41.1771305 22.864628,45.8958333 13.9270833,45.8958333 C5.36454052,45.8958333 1.08333333,41.3568162 1.08333333,32.2786458 L1.08333333,11.7239583 L6.66145833,11.7239583 L6.66145833,31.1302083 C6.66145833,37.7239913 9.22393271,41.0208333 14.3489583,41.0208333 C19.286483,41.0208333 21.7552083,37.8411776 21.7552083,31.4817708 L21.7552083,11.7239583 L27.3333333,11.7239583 L27.3333333,31.7395833 Z M43.8802083,11.7239583 L43.8802083,16.2239583 L40.8098958,16.2239583 L40.8098958,40.8333333 L43.8802083,40.8333333 L43.8802083,45.3333333 L32.1614583,45.3333333 L32.1614583,40.8333333 L35.2317708,40.8333333 L35.2317708,16.2239583 L32.1614583,16.2239583 L32.1614583,11.7239583 L43.8802083,11.7239583 Z" id="UI"></path>
            </g>
        </g>
    </g>
</svg>